ModelForces
version=1
nRows=13
nColumns=52
inDegrees=no

This file contains the forces exerted on a model during a simulation.

A force is a generalized force, meaning that it can be either a force (N) or a torque (Nm).

Units are S.I. units (second, meters, Newtons, ...)
Angles are in degrees.

endheader
time	contactForce_femur_lat_meniscii_l.femur_lat_l.force.X	contactForce_femur_lat_meniscii_l.femur_lat_l.force.Y	contactForce_femur_lat_meniscii_l.femur_lat_l.force.Z	contactForce_femur_lat_meniscii_l.femur_lat_l.torque.X	contactForce_femur_lat_meniscii_l.femur_lat_l.torque.Y	contactForce_femur_lat_meniscii_l.femur_lat_l.torque.Z	contactForce_femur_lat_meniscii_l.meniscus_lat_l.force.X	contactForce_femur_lat_meniscii_l.meniscus_lat_l.force.Y	contactForce_femur_lat_meniscii_l.meniscus_lat_l.force.Z	contactForce_femur_lat_meniscii_l.meniscus_lat_l.torque.X	contactForce_femur_lat_meniscii_l.meniscus_lat_l.torque.Y	contactForce_femur_lat_meniscii_l.meniscus_lat_l.torque.Z	contactForce_femur_med_meniscii_l.femur_med_l.force.X	contactForce_femur_med_meniscii_l.femur_med_l.force.Y	contactForce_femur_med_meniscii_l.femur_med_l.force.Z	contactForce_femur_med_meniscii_l.femur_med_l.torque.X	contactForce_femur_med_meniscii_l.femur_med_l.torque.Y	contactForce_femur_med_meniscii_l.femur_med_l.torque.Z	contactForce_femur_med_meniscii_l.meniscus_med_l.force.X	contactForce_femur_med_meniscii_l.meniscus_med_l.force.Y	contactForce_femur_med_meniscii_l.meniscus_med_l.force.Z	contactForce_femur_med_meniscii_l.meniscus_med_l.torque.X	contactForce_femur_med_meniscii_l.meniscus_med_l.torque.Y	contactForce_femur_med_meniscii_l.meniscus_med_l.torque.Z	contactForce_femur_lat_meniscii_r.femur_lat_r.force.X	contactForce_femur_lat_meniscii_r.femur_lat_r.force.Y	contactForce_femur_lat_meniscii_r.femur_lat_r.force.Z	contactForce_femur_lat_meniscii_r.femur_lat_r.torque.X	contactForce_femur_lat_meniscii_r.femur_lat_r.torque.Y	contactForce_femur_lat_meniscii_r.femur_lat_r.torque.Z	contactForce_femur_lat_meniscii_r.meniscus_lat_r.force.X	contactForce_femur_lat_meniscii_r.meniscus_lat_r.force.Y	contactForce_femur_lat_meniscii_r.meniscus_lat_r.force.Z	contactForce_femur_lat_meniscii_r.meniscus_lat_r.torque.X	contactForce_femur_lat_meniscii_r.meniscus_lat_r.torque.Y	contactForce_femur_lat_meniscii_r.meniscus_lat_r.torque.Z	contactForce_femur_med_meniscii_r.femur_med_r.force.X	contactForce_femur_med_meniscii_r.femur_med_r.force.Y	contactForce_femur_med_meniscii_r.femur_med_r.force.Z	contactForce_femur_med_meniscii_r.femur_med_r.torque.X	contactForce_femur_med_meniscii_r.femur_med_r.torque.Y	contactForce_femur_med_meniscii_r.femur_med_r.torque.Z	contactForce_femur_med_meniscii_r.meniscus_med_r.force.X	contactForce_femur_med_meniscii_r.meniscus_med_r.force.Y	contactForce_femur_med_meniscii_r.meniscus_med_r.force.Z	contactForce_femur_med_meniscii_r.meniscus_med_r.torque.X	contactForce_femur_med_meniscii_r.meniscus_med_r.torque.Y	contactForce_femur_med_meniscii_r.meniscus_med_r.torque.Z	ground_prescribedForce_fx	ground_prescribedForce_fy	ground_prescribedForce_fz
      0.46403289	      0.00000000	      0.00000000	      0.00000000	      0.00000000	      0.00000000	      0.00000000	      0.00000000	      0.00000000	      0.00000000	      0.00000000	      0.00000000	      0.00000000	      0.00000000	      0.00000000	      0.00000000	      0.00000000	      0.00000000	      0.00000000	      0.00000000	      0.00000000	      0.00000000	      0.00000000	      0.00000000	      0.00000000	     17.87194657	      6.94574876	      0.27842021	     -0.29004015	      0.45374896	      7.29993067	    -17.87194657	     -6.94574876	     -0.27842021	      0.22652721	     -0.57588493	     -0.17607395	     35.49442919	      5.56854905	     -1.12636036	      0.56151790	     -0.66691530	     14.39106279	    -35.49442919	     -5.56854905	      1.12636036	     -0.08543380	      0.45938990	     -0.41443630	     23.20164446	      4.64032889	      0.00000000
      0.47205492	      0.00000000	      0.00000000	      0.00000000	      0.00000000	      0.00000000	      0.00000000	      0.00000000	      0.00000000	      0.00000000	      0.00000000	      0.00000000	      0.00000000	      0.00000000	      0.00000000	      0.00000000	      0.00000000	      0.00000000	      0.00000000	      0.00000000	      0.00000000	      0.00000000	      0.00000000	      0.00000000	      0.00000000	     11.15032581	      5.00853377	      0.72577741	     -0.42526571	      0.28849530	      4.54454980	    -11.15032581	     -5.00853377	     -0.72577741	      0.17425673	     -0.37575689	     -0.08604164	     28.29950959	      3.68843902	     -0.46346447	      0.25658624	     -0.52566174	     11.48121080	    -28.29950959	     -3.68843902	      0.46346447	     -0.05172266	      0.35212747	     -0.35313397	     23.60274590	      4.72054918	      0.00000000
      0.48007695	      0.00000000	      0.00000000	      0.00000000	      0.00000000	      0.00000000	      0.00000000	      0.00000000	      0.00000000	      0.00000000	      0.00000000	      0.00000000	      0.00000000	      0.00000000	      0.00000000	      0.00000000	      0.00000000	      0.00000000	      0.00000000	      0.00000000	      0.00000000	      0.00000000	      0.00000000	      0.00000000	      0.00000000	      0.42441926	      0.24055738	      0.01298803	     -0.01149172	      0.01102338	      0.17306711	     -0.42441926	     -0.24055738	     -0.01298803	      0.00796427	     -0.01401640	     -0.00236267	     13.84287103	      1.63545548	     -0.16351216	      0.09682839	     -0.25575080	      5.61538500	    -13.84287103	     -1.63545548	      0.16351216	     -0.02245768	      0.17017661	     -0.17510839	     24.00384734	      4.80076947	      0.00000000
      0.49664936	      0.00000000	      0.00000000	      0.00000000	      0.00000000	      0.00000000	      0.00000000	      0.00000000	      0.00000000	      0.00000000	      0.00000000	      0.00000000	      0.00000000	      0.00000000	      0.00000000	      0.00000000	      0.00000000	      0.00000000	      0.00000000	      0.00000000	      0.00000000	      0.00000000	      0.00000000	      0.00000000	      0.00000000	      0.00000000	      0.00000000	      0.00000000	      0.00000000	      0.00000000	      0.00000000	      0.00000000	      0.00000000	      0.00000000	      0.00000000	      0.00000000	      0.00000000	      9.61274208	      1.23272410	     -0.47043529	      0.21428260	     -0.18245215	      3.89740287	     -9.61274208	     -1.23272410	      0.47043529	     -0.02259182	      0.13026486	     -0.11719845	     24.83246791	      4.96649358	      0.00000000
      0.50658045	      0.00000000	      0.00000000	      0.00000000	      0.00000000	      0.00000000	      0.00000000	      0.00000000	      0.00000000	      0.00000000	      0.00000000	      0.00000000	      0.00000000	      0.00000000	      0.00000000	      0.00000000	      0.00000000	      0.00000000	      0.00000000	      0.00000000	      0.00000000	      0.00000000	      0.00000000	      0.00000000	      0.00000000	     10.66805414	      3.35716260	     -0.07404550	     -0.05346818	      0.26592991	      4.35677388	    -10.66805414	     -3.35716260	      0.07404550	      0.10416297	     -0.33358254	     -0.12027304	     24.46413266	      3.65871257	     -1.32176308	      0.60533722	     -0.46289749	      9.91822060	    -24.46413266	     -3.65871257	      1.32176308	     -0.06533300	      0.33163761	     -0.28677248	     25.32902260	      5.06580452	      0.00000000
      0.51506783	      0.00000000	      0.00000000	      0.00000000	      0.00000000	      0.00000000	      0.00000000	      0.00000000	      0.00000000	      0.00000000	      0.00000000	      0.00000000	      0.00000000	      0.00000000	      0.00000000	      0.00000000	      0.00000000	      0.00000000	      0.00000000	      0.00000000	      0.00000000	      0.00000000	      0.00000000	      0.00000000	      0.00000000	     19.91740158	      7.17279089	      1.23368084	     -0.68633255	      0.50922049	      8.12233870	    -19.91740158	     -7.17279089	     -1.23368084	      0.25101636	     -0.66418878	     -0.19328433	     31.19454520	      4.50638464	     -0.65829553	      0.35099177	     -0.57965958	     12.65232726	    -31.19454520	     -4.50638464	      0.65829553	     -0.06463857	      0.39101888	     -0.37430013	     25.75339144	      5.15067829	      0.00000000
      0.52414284	      0.00000000	      0.00000000	      0.00000000	      0.00000000	      0.00000000	      0.00000000	      0.00000000	      0.00000000	      0.00000000	      0.00000000	      0.00000000	      0.00000000	      0.00000000	      0.00000000	      0.00000000	      0.00000000	      0.00000000	      0.00000000	      0.00000000	      0.00000000	      0.00000000	      0.00000000	      0.00000000	      0.00000000	      7.01045875	      2.38722558	      0.60166411	     -0.30628787	      0.18059303	      2.85532854	     -7.01045875	     -2.38722558	     -0.60166411	      0.08665079	     -0.23823050	     -0.06747685	     18.79180768	      2.28529240	     -0.33593445	      0.17887096	     -0.34708668	      7.62409279	    -18.79180768	     -2.28529240	      0.33593445	     -0.03291176	      0.23288139	     -0.23620909	     26.20714202	      5.24142840	      0.00000000
      0.53321785	      0.00000000	      0.00000000	      0.00000000	      0.00000000	      0.00000000	      0.00000000	      0.00000000	      0.00000000	      0.00000000	      0.00000000	      0.00000000	      0.00000000	      0.00000000	      0.00000000	      0.00000000	      0.00000000	      0.00000000	      0.00000000	      0.00000000	      0.00000000	      0.00000000	      0.00000000	      0.00000000	      0.00000000	      0.47952640	      0.01901715	      0.07272980	     -0.03002384	      0.01204115	      0.19485549	     -0.47952640	     -0.01901715	     -0.07272980	      0.00173177	     -0.01661118	     -0.00712358	      9.83935240	      1.17833364	     -0.22816832	      0.11465968	     -0.18317290	      3.99066636	     -9.83935240	     -1.17833364	      0.22816832	     -0.01794686	      0.12462041	     -0.12248166	     26.66089259	      5.33217852	      0.00000000
      0.54634297	      0.00000000	      0.00000000	      0.00000000	      0.00000000	      0.00000000	      0.00000000	      0.00000000	      0.00000000	      0.00000000	      0.00000000	      0.00000000	      0.00000000	      0.00000000	      0.00000000	      0.00000000	      0.00000000	      0.00000000	      0.00000000	      0.00000000	      0.00000000	      0.00000000	      0.00000000	      0.00000000	      0.00000000	      6.65649718	      1.80262377	      0.02961161	     -0.05653136	      0.16468349	      2.71395051	     -6.65649718	     -1.80262377	     -0.02961161	      0.05663372	     -0.20839135	     -0.07621789	     16.26806834	      2.36317333	     -0.88242878	      0.40240267	     -0.30719024	      6.59499775	    -16.26806834	     -2.36317333	      0.88242878	     -0.04235646	      0.22006515	     -0.19066824	     27.31714858	      5.46342972	      0.00000000
      0.55781016	      0.00000000	      0.00000000	      0.00000000	      0.00000000	      0.00000000	      0.00000000	      0.00000000	      0.00000000	      0.00000000	      0.00000000	      0.00000000	      0.00000000	      0.00000000	      0.00000000	      0.00000000	      0.00000000	      0.00000000	      0.00000000	      0.00000000	      0.00000000	      0.00000000	      0.00000000	      0.00000000	      0.00000000	     21.86241443	      7.24462348	      1.35423939	     -0.73585824	      0.55574723	      8.91363402	    -21.86241443	     -7.24462348	     -1.35423939	      0.25389201	     -0.72601969	     -0.22203528	     26.39371341	      3.84387008	     -0.66176975	      0.33986032	     -0.48912559	     10.70363091	    -26.39371341	     -3.84387008	      0.66176975	     -0.05636533	      0.33143905	     -0.31276802	     27.89050822	      5.57810164	      0.00000000
      0.56690089	      0.00000000	      0.00000000	      0.00000000	      0.00000000	      0.00000000	      0.00000000	      0.00000000	      0.00000000	      0.00000000	      0.00000000	      0.00000000	      0.00000000	      0.00000000	      0.00000000	      0.00000000	      0.00000000	      0.00000000	      0.00000000	      0.00000000	      0.00000000	      0.00000000	      0.00000000	      0.00000000	      0.00000000	     12.28132553	      3.87578017	      1.03205341	     -0.51932194	      0.31444076	      5.00287642	    -12.28132553	     -3.87578017	     -1.03205341	      0.14118605	     -0.41527525	     -0.12442519	     18.34985522	      2.32833253	     -0.44757798	      0.22461015	     -0.33936444	      7.44386058	    -18.34985522	     -2.32833253	      0.44757798	     -0.03468495	      0.22992828	     -0.22657941	     28.34504460	      5.66900892	      0.00000000
      0.57599162	      0.00000000	      0.00000000	      0.00000000	      0.00000000	      0.00000000	      0.00000000	      0.00000000	      0.00000000	      0.00000000	      0.00000000	      0.00000000	      0.00000000	      0.00000000	      0.00000000	      0.00000000	      0.00000000	      0.00000000	      0.00000000	      0.00000000	      0.00000000	      0.00000000	      0.00000000	      0.00000000	      0.00000000	      4.16007977	      0.83918624	      0.33082486	     -0.15565715	      0.10488901	      1.69322670	     -4.16007977	     -0.83918624	     -0.33082486	      0.03180795	     -0.13853338	     -0.05049507	     10.74254017	      1.34244128	     -0.28720349	      0.14148327	     -0.19971009	      4.35677932	    -10.74254017	     -1.34244128	      0.28720349	     -0.02059971	      0.13628677	     -0.13171101	     28.79958098	      5.75991620	      0.00000000
      0.59079288	      0.00000000	      0.00000000	      0.00000000	      0.00000000	      0.00000000	      0.00000000	      0.00000000	      0.00000000	      0.00000000	      0.00000000	      0.00000000	      0.00000000	      0.00000000	      0.00000000	      0.00000000	      0.00000000	      0.00000000	      0.00000000	      0.00000000	      0.00000000	      0.00000000	      0.00000000	      0.00000000	      0.00000000	     14.35794007	      3.95119001	      0.39534684	     -0.25939859	      0.35740268	      5.85341558	    -14.35794007	     -3.95119001	     -0.39534684	      0.13057852	     -0.45881161	     -0.16151033	     17.09421198	      2.50079451	     -0.74920577	      0.35040540	     -0.31955659	      6.93029547	    -17.09421198	     -2.50079451	      0.74920577	     -0.04142962	      0.22407729	     -0.19926965	     29.53964388	      5.90792878	      0.00000000
